<?xml version="1.0" encoding="utf-8"?>
<!-- Generator: Adobe Illustrator 17.0.0, SVG Export Plug-In . SVG Version: 6.00 Build 0)  -->
<!DOCTYPE svg PUBLIC "-//W3C//DTD SVG 1.1//EN" "http://www.w3.org/Graphics/SVG/1.1/DTD/svg11.dtd">
<svg version="1.1" id="Layer_1" xmlns="http://www.w3.org/2000/svg" xmlns:xlink="http://www.w3.org/1999/xlink" x="0px" y="0px"
	 width="1541px" height="996px" viewBox="0 0 1541 996" enable-background="new 0 0 1541 996" xml:space="preserve">
<path fill="none" stroke="#000000" stroke-miterlimit="10" d="M449.415,60.932h28.346c0,0,54.082,39.548,119.728,52.95"/>
<line fill="none" stroke="#00AEEF" stroke-miterlimit="10" x1="449.415" y1="60.932" x2="449.415" y2="231"/>
<line fill="none" stroke="#00AEEF" stroke-miterlimit="10" x1="874.612" y1="60.932" x2="874.612" y2="231"/>
<line fill="none" stroke="#00AEEF" stroke-miterlimit="10" x1="449.415" y1="231" x2="874.612" y2="231"/>
<line fill="none" stroke="#000000" stroke-miterlimit="10" x1="449.415" y1="231.034" x2="449.415" y2="443.633"/>
<line fill="none" stroke="#000000" stroke-miterlimit="10" x1="874.612" y1="231.034" x2="874.612" y2="443.633"/>
<line fill="none" stroke="#00AEEF" stroke-miterlimit="10" x1="449.415" y1="443.633" x2="874.612" y2="443.633"/>
<line fill="none" stroke="#000000" stroke-miterlimit="10" x1="463.589" y1="246.333" x2="860.439" y2="246.333"/>
<line fill="none" stroke="#000000" stroke-miterlimit="10" x1="463.589" y1="430.585" x2="860.439" y2="430.585"/>
<line fill="none" stroke="#000000" stroke-miterlimit="10" x1="463.589" y1="246.333" x2="463.589" y2="430.585"/>
<line fill="none" stroke="#000000" stroke-miterlimit="10" x1="860.439" y1="246.333" x2="860.439" y2="430.585"/>
<line fill="none" stroke="#00AEEF" stroke-miterlimit="10" x1="449.415" y1="443.633" x2="449.415" y2="656.231"/>
<line fill="none" stroke="#000000" stroke-miterlimit="10" x1="421.069" y1="471.49" x2="421.069" y2="628.374"/>
<line fill="none" stroke="#000000" stroke-miterlimit="10" x1="449.415" y1="443.633" x2="421.558" y2="471.49"/>
<line fill="none" stroke="#000000" stroke-miterlimit="10" x1="449.415" y1="656.231" x2="421.069" y2="628.374"/>
<line fill="none" stroke="#00AEEF" stroke-miterlimit="10" x1="874.612" y1="443.633" x2="874.612" y2="656.231"/>
<line fill="none" stroke="#00AEEF" stroke-miterlimit="10" x1="449.415" y1="656.231" x2="874.612" y2="656.231"/>
<line fill="none" stroke="#000000" stroke-miterlimit="10" x1="463.589" y1="458.932" x2="860.439" y2="458.932"/>
<line fill="none" stroke="#000000" stroke-miterlimit="10" x1="463.589" y1="643.184" x2="860.439" y2="643.184"/>
<line fill="none" stroke="#000000" stroke-miterlimit="10" x1="463.589" y1="458.932" x2="463.589" y2="643.184"/>
<line fill="none" stroke="#000000" stroke-miterlimit="10" x1="860.439" y1="458.932" x2="860.439" y2="643.184"/>
<line fill="none" stroke="#000000" stroke-miterlimit="10" x1="449.415" y1="656.231" x2="449.415" y2="911.349"/>
<line fill="none" stroke="#000000" stroke-miterlimit="10" x1="874.612" y1="656.231" x2="874.612" y2="911.349"/>
<line fill="none" stroke="#00AEEF" stroke-miterlimit="10" x1="449.415" y1="911.349" x2="874.612" y2="911.349"/>
<line fill="none" stroke="#000000" stroke-miterlimit="10" x1="449.415" y1="911.349" x2="449.415" y2="939.696"/>
<line fill="none" stroke="#000000" stroke-miterlimit="10" x1="874.612" y1="911.349" x2="874.612" y2="939.696"/>
<line fill="none" stroke="#000000" stroke-miterlimit="10" x1="449.415" y1="939.696" x2="874.612" y2="939.696"/>
<line fill="none" stroke="#000000" stroke-miterlimit="10" x1="874.612" y1="231.034" x2="897.859" y2="254.281"/>
<line fill="none" stroke="#00AEEF" stroke-miterlimit="10" x1="1024.942" y1="381.364" x2="1251.714" y2="381.364"/>
<line fill="none" stroke="#000000" stroke-miterlimit="10" x1="1251.714" y1="326.198" x2="1251.714" y2="381.364"/>
<line fill="none" stroke="#000000" stroke-miterlimit="10" x1="1073.037" y1="147.522" x2="1104.804" y2="179.289"/>
<line fill="none" stroke="#00AEEF" stroke-miterlimit="10" x1="1073.037" y1="61.066" x2="1073.037" y2="147.522"/>
<line fill="none" stroke="#000000" stroke-miterlimit="10" x1="874.612" y1="60.932" x2="1073.037" y2="60.932"/>
<line fill="none" stroke="#00AEEF" stroke-miterlimit="10" x1="1024.942" y1="381.364" x2="1024.942" y2="664.828"/>
<line fill="none" stroke="#000000" stroke-miterlimit="10" x1="1251.714" y1="381.364" x2="1251.714" y2="664.828"/>
<line fill="none" stroke="#000000" stroke-miterlimit="10" x1="1024.942" y1="664.828" x2="1251.714" y2="664.828"/>
<line fill="none" stroke="#000000" stroke-miterlimit="10" x1="449.415" y1="231.034" x2="419.411" y2="261.038"/>
<line fill="none" stroke="#00AEEF" stroke-miterlimit="10" x1="299.085" y1="381.364" x2="72.314" y2="381.364"/>
<line fill="none" stroke="#000000" stroke-miterlimit="10" x1="72.314" y1="326.198" x2="72.314" y2="381.364"/>
<line fill="none" stroke="#000000" stroke-miterlimit="10" x1="107.452" y1="291.06" x2="72.314" y2="326.198"/>
<line fill="none" stroke="#000000" stroke-miterlimit="10" x1="250.99" y1="61.066" x2="250.99" y2="147.522"/>
<line fill="none" stroke="#000000" stroke-miterlimit="10" x1="449.415" y1="60.932" x2="250.99" y2="60.932"/>
<line fill="none" stroke="#00AEEF" stroke-miterlimit="10" x1="299.085" y1="381.364" x2="299.085" y2="409.71"/>
<line fill="none" stroke="#000000" stroke-miterlimit="10" x1="72.314" y1="381.364" x2="72.314" y2="409.71"/>
<line fill="none" stroke="#000000" stroke-miterlimit="10" x1="299.085" y1="409.71" x2="72.314" y2="409.71"/>
<line fill="none" stroke="#000000" stroke-miterlimit="10" x1="1073.037" y1="147.522" x2="1209.099" y2="147.522"/>
<line fill="none" stroke="#00AEEF" stroke-miterlimit="10" x1="1498.234" y1="61.066" x2="1498.234" y2="147.522"/>
<path fill="none" stroke="#000000" stroke-miterlimit="10" d="M1073.037,60.932h28.346c0,0,77.953,59.402,184.252,59.402
	s184.252-59.402,184.252-59.402h28.346"/>
<path fill="none" stroke="#000000" stroke-miterlimit="10" d="M662.014,177.026c-41.05-1.079-30.958-58.395-64.524-63.145"/>
<path fill="none" stroke="#000000" stroke-miterlimit="10" d="M874.612,60.932h-28.346c0,0-48.203,37.958-118.173,52.041"/>
<path fill="none" stroke="#000000" stroke-miterlimit="10" d="M662.014,177.026c41.05-1.079,32.514-59.303,66.079-64.053"/>
<rect x="619.494" y="875.916" fill="none" stroke="#000000" stroke-miterlimit="10" width="85.039" height="8.504"/>
<rect x="619.494" y="898.593" fill="none" stroke="#000000" stroke-miterlimit="10" width="85.039" height="8.504"/>
<rect x="299.179" y="89.278" fill="none" stroke="#000000" stroke-miterlimit="10" width="102.047" height="8.504"/>
<rect x="922.801" y="89.278" fill="none" stroke="#000000" stroke-miterlimit="10" width="102.047" height="8.504"/>
<line fill="none" stroke="#000000" stroke-miterlimit="10" x1="314.5" y1="388.451" x2="314.5" y2="402.624"/>
<line fill="none" stroke="#000000" stroke-miterlimit="10" x1="299.085" y1="381.364" x2="314.5" y2="388.451"/>
<line fill="none" stroke="#000000" stroke-miterlimit="10" x1="314.5" y1="402.624" x2="299.085" y2="409.71"/>
<line fill="none" stroke="#000000" stroke-miterlimit="10" x1="192.174" y1="186.965" x2="107.88" y2="271.259"/>
<line fill="none" stroke="#000000" stroke-miterlimit="10" x1="420.437" y1="281.778" x2="336.144" y2="366.072"/>
<line fill="none" stroke="#000000" stroke-miterlimit="10" x1="107.88" y1="271.259" x2="107.88" y2="290.632"/>
<line fill="none" stroke="#000000" stroke-miterlimit="10" x1="192.174" y1="186.965" x2="211.547" y2="186.965"/>
<line fill="none" stroke="#000000" stroke-miterlimit="10" x1="420.437" y1="281.778" x2="420.437" y2="260.012"/>
<line fill="none" stroke="#000000" stroke-miterlimit="10" x1="336.144" y1="366.072" x2="314.378" y2="366.072"/>
<line fill="none" stroke="#000000" stroke-miterlimit="10" x1="1125.093" y1="180.427" x2="1209.387" y2="264.72"/>
<line fill="none" stroke="#000000" stroke-miterlimit="10" x1="896.83" y1="275.239" x2="981.123" y2="359.533"/>
<line fill="none" stroke="#000000" stroke-miterlimit="10" x1="1209.387" y1="264.72" x2="1209.387" y2="284.094"/>
<line fill="none" stroke="#000000" stroke-miterlimit="10" x1="1125.093" y1="180.427" x2="1105.72" y2="180.427"/>
<line fill="none" stroke="#000000" stroke-miterlimit="10" x1="896.83" y1="275.239" x2="896.83" y2="253.473"/>
<line fill="none" stroke="#000000" stroke-miterlimit="10" x1="981.123" y1="359.533" x2="1002.889" y2="359.533"/>
<line fill="none" stroke="#000000" stroke-miterlimit="10" x1="1009.435" y1="396.778" x2="1009.526" y2="649.09"/>
<line fill="none" stroke="#000000" stroke-miterlimit="10" x1="1024.942" y1="381.364" x2="1009.527" y2="396.778"/>
<line fill="none" stroke="#000000" stroke-miterlimit="10" x1="1024.942" y1="664.509" x2="1009.524" y2="649.09"/>
<line fill="none" stroke="#000000" stroke-miterlimit="10" x1="1349.145" y1="161.221" x2="1223.086" y2="161.221"/>
<line fill="none" stroke="#000000" stroke-miterlimit="10" x1="1223.086" y1="161.221" x2="1209.387" y2="147.522"/>
<line fill="none" stroke="#000000" stroke-miterlimit="10" x1="1349.145" y1="161.221" x2="1362.844" y2="147.522"/>
<line fill="none" stroke="#000000" stroke-miterlimit="10" x1="1512.865" y1="82.346" x2="1512.865" y2="126.08"/>
<line fill="none" stroke="#000000" stroke-miterlimit="10" x1="1497.45" y1="60.478" x2="1512.865" y2="82.346"/>
<line fill="none" stroke="#000000" stroke-miterlimit="10" x1="1512.865" y1="126.08" x2="1497.45" y2="147.948"/>
<line fill="none" stroke="#000000" stroke-miterlimit="10" x1="250.395" y1="146.927" x2="211.547" y2="185.776"/>
<line fill="none" stroke="#000000" stroke-miterlimit="10" x1="315.294" y1="365.249" x2="299.179" y2="381.364"/>
<line fill="none" stroke="#00AEEF" stroke-miterlimit="10" x1="107.88" y1="290.632" x2="211.547" y2="186.965"/>
<line fill="none" stroke="#00AEEF" stroke-miterlimit="10" x1="314.378" y1="366.072" x2="419.411" y2="261.038"/>
<line fill="none" stroke="#000000" stroke-miterlimit="10" x1="1002.889" y1="359.533" x2="1024.831" y2="381.475"/>
<line fill="none" stroke="#000000" stroke-miterlimit="10" x1="1209.387" y1="283.406" x2="1252.157" y2="326.176"/>
<line fill="none" stroke="#00AEEF" stroke-miterlimit="10" x1="896.83" y1="253.473" x2="1002.889" y2="359.533"/>
<line fill="none" stroke="#00AEEF" stroke-miterlimit="10" x1="1105.72" y1="180.427" x2="1209.387" y2="283.406"/>
<line fill="none" stroke="#000000" stroke-miterlimit="10" x1="1362.172" y1="147.522" x2="1498.234" y2="147.522"/>
<line fill="none" stroke="#00AEEF" stroke-miterlimit="10" x1="1209.099" y1="147.522" x2="1362.844" y2="147.522"/>
<line fill="none" stroke="#000000" stroke-miterlimit="10" x1="902.959" y1="471.49" x2="902.959" y2="628.374"/>
<line fill="none" stroke="#000000" stroke-miterlimit="10" x1="874.612" y1="443.633" x2="902.469" y2="471.49"/>
<line fill="none" stroke="#000000" stroke-miterlimit="10" x1="874.612" y1="656.231" x2="902.959" y2="628.374"/>
<text transform="matrix(1 0 0 1 1192.3021 758.3333)"><tspan x="0" y="0" font-family="'LetterGothicStd-Bold'" font-size="36">cARdboard</tspan><tspan x="2.699" y="25.2" font-family="'LetterGothicStd-Bold'" font-size="21">by Mark Schramm</tspan><tspan x="-28.8" y="75.6" font-family="'LetterGothicStd-Bold'" font-size="21">www.Mark-Schramm.com</tspan></text>
<rect x="1095" y="884.42" fill="none" width="410.157" height="118"/>
<text transform="matrix(1 0 0 1 1095.0004 892.9395)"><tspan x="0" y="0" font-family="'MyriadPro-Regular'" font-size="12">Licensed under GNU General Public License v3.0</tspan><tspan x="0" y="28.801" font-family="'MyriadPro-Regular'" font-size="12">Permissions of this strong copyleft license are conditioned on making available </tspan><tspan x="0" y="43.2" font-family="'MyriadPro-Regular'" font-size="12">complete source code of licensed works and modifications, which include larger </tspan><tspan x="0" y="57.601" font-family="'MyriadPro-Regular'" font-size="12">works using a licensed work, under the same license. Copyright and license notic</tspan><tspan x="401.524" y="57.601" font-family="'MyriadPro-Regular'" font-size="12">-</tspan><tspan x="0" y="72" font-family="'MyriadPro-Regular'" font-size="12">es must be preserved. Contributors provide an express grant of patent rights.</tspan></text>
<rect x="1061" y="705" fill="none" stroke="#000000" stroke-width="2" stroke-miterlimit="10" stroke-dasharray="12" width="457" height="282"/>
<line fill="none" x1="72.314" y1="82.346" x2="100.66" y2="82.346"/>
<text transform="matrix(1 0 0 1 61.23 66)" font-family="'MyriadPro-Regular'" font-size="12">1cm</text>
<line fill="none" stroke="#000000" stroke-miterlimit="10" x1="58.141" y1="78" x2="86.487" y2="78"/>
</svg>
